<svg width="22" height="25" viewBox="0 0 22 25" fill="none" xmlns="http://www.w3.org/2000/svg">
<path d="M20.9723 10.0724C20.864 9.10699 20.4166 8.21125 19.71 7.5446C19.0033 6.87796 18.0833 6.48362 17.1132 6.4316V6.14782C17.1141 5.34036 16.9553 4.54079 16.6462 3.79484C16.3371 3.0489 15.8836 2.37133 15.3118 1.80123C14.7413 1.22939 14.0633 0.775946 13.317 0.466835C12.5707 0.157723 11.7707 -0.000939668 10.9629 4.18644e-06C9.33226 0.000600943 7.76865 0.648604 6.61561 1.80164C5.46258 2.95467 4.81457 4.51842 4.81398 6.14906V6.436C3.8568 6.50402 2.95353 6.90531 2.26146 7.57003C1.56939 8.23474 1.13228 9.12093 1.02574 10.0746L0 19.4186C0.00506676 20.6715 0.507103 21.8711 1.39596 22.7541C2.28481 23.637 3.48801 24.131 4.74087 24.1277H17.2594C18.5123 24.131 19.7152 23.637 20.604 22.7541C21.4929 21.8711 21.9949 20.6715 22 19.4186L20.9723 10.0724ZM6.61973 6.15909C6.61959 5.58878 6.73168 5.02402 6.94983 4.49708C7.16797 3.97014 7.48797 3.49139 7.89118 3.08807C8.2944 2.68474 8.7729 2.36472 9.29978 2.14644C9.82667 1.92815 10.3915 1.81593 10.9618 1.81593C11.5322 1.81538 12.0971 1.92744 12.6241 2.14575C13.1511 2.36405 13.63 2.68417 14.033 3.08793C14.4369 3.49081 14.7572 3.96951 14.9757 4.49653C15.1942 5.02356 15.3065 5.58857 15.3061 6.15909V6.42253H6.61973V6.15909ZM7.47644 12.5469C7.33314 12.547 7.19109 12.5189 7.05867 12.4641C6.92625 12.4094 6.80599 12.3289 6.70466 12.2276C6.60334 12.1263 6.52306 12.006 6.46829 11.8736C6.41352 11.7412 6.38541 11.5993 6.38556 11.456C6.38541 11.3127 6.41352 11.1708 6.46829 11.0383C6.52306 10.9059 6.60334 10.7855 6.70466 10.6842C6.80599 10.5829 6.92625 10.5026 7.05867 10.4478C7.19109 10.3931 7.33314 10.365 7.47644 10.3651C7.61994 10.3648 7.76208 10.3927 7.89476 10.4474C8.02743 10.5021 8.14796 10.5823 8.24959 10.6837C8.35121 10.785 8.43197 10.9053 8.48706 11.0378C8.54214 11.1703 8.57046 11.3125 8.57061 11.456C8.57046 11.5995 8.54214 11.7415 8.48706 11.874C8.43197 12.0065 8.35121 12.1269 8.24959 12.2282C8.14796 12.3295 8.02743 12.4097 7.89476 12.4644C7.76208 12.5191 7.61994 12.5471 7.47644 12.5469ZM14.526 12.5469C14.3825 12.5471 14.2404 12.5191 14.1077 12.4644C13.975 12.4097 13.8545 12.3295 13.7529 12.2282C13.6513 12.1269 13.5705 12.0065 13.5154 11.874C13.4603 11.7415 13.432 11.5995 13.4319 11.456C13.432 11.3125 13.4603 11.1703 13.5154 11.0378C13.5705 10.9053 13.6513 10.785 13.7529 10.6837C13.8545 10.5823 13.975 10.5021 14.1077 10.4474C14.2404 10.3927 14.3825 10.3648 14.526 10.3651C14.6693 10.365 14.8111 10.3931 14.9435 10.4478C15.0759 10.5026 15.1965 10.5829 15.2978 10.6842C15.3991 10.7855 15.4794 10.9059 15.5342 11.0383C15.589 11.1708 15.6171 11.3127 15.6169 11.456C15.6171 11.5993 15.589 11.7412 15.5342 11.8736C15.4794 12.006 15.3991 12.1263 15.2978 12.2276C15.1965 12.3289 15.0759 12.4094 14.9435 12.4641C14.8111 12.5189 14.6693 12.547 14.526 12.5469Z" fill="#FE724C"/>
</svg>
