<svg width="20" height="20" viewBox="0 0 20 20" fill="none" xmlns="http://www.w3.org/2000/svg">
<rect width="19.1667" height="19.1667" rx="6.70833" fill="#9796A1"/>
<rect x="4.7915" y="1.91675" width="10.5417" height="13.4167" fill="white"/>
<rect x="4.7915" y="1.91675" width="10.5417" height="10.5417" fill="white"/>
<path d="M9.58333 0C4.29253 0 0 4.29253 0 9.58333C0 14.8741 4.29253 19.1667 9.58333 19.1667C14.8741 19.1667 19.1667 14.8741 19.1667 9.58333C19.1667 4.29253 14.8741 0 9.58333 0ZM9.28385 15.1736C9.08642 15.1736 8.89341 15.1151 8.72925 15.0054C8.56508 14.8957 8.43713 14.7398 8.36158 14.5574C8.28602 14.375 8.26625 14.1742 8.30477 13.9806C8.34329 13.787 8.43836 13.6091 8.57798 13.4695C8.71758 13.3299 8.89546 13.2348 9.0891 13.1963C9.28275 13.1577 9.48346 13.1775 9.66587 13.2531C9.84828 13.3286 10.0042 13.4566 10.1139 13.6207C10.2236 13.7849 10.2821 13.9779 10.2821 14.1753C10.2821 14.4401 10.1769 14.694 9.98973 14.8812C9.80252 15.0684 9.54861 15.1736 9.28385 15.1736ZM10.953 10.0825C10.1439 10.6255 10.0326 11.1232 10.0326 11.5799C10.0326 11.7652 9.95893 11.9429 9.82788 12.074C9.69684 12.205 9.5191 12.2786 9.33377 12.2786C9.14844 12.2786 8.9707 12.205 8.83965 12.074C8.7086 11.9429 8.63498 11.7652 8.63498 11.5799C8.63498 10.4863 9.13811 9.61677 10.1733 8.92148C11.1356 8.27561 11.6797 7.86632 11.6797 6.96638C11.6797 6.35445 11.3303 5.88976 10.6071 5.54586C10.4368 5.465 10.058 5.38613 9.59182 5.39162C9.00684 5.39911 8.55263 5.53887 8.20273 5.82038C7.54288 6.35145 7.48698 6.92945 7.48698 6.93793C7.48255 7.0297 7.4601 7.1197 7.42089 7.20278C7.38169 7.28587 7.3265 7.36042 7.25849 7.42218C7.19047 7.48394 7.11095 7.5317 7.02448 7.56273C6.93801 7.59376 6.84627 7.60745 6.7545 7.60303C6.66274 7.5986 6.57274 7.57615 6.48965 7.53694C6.40657 7.49774 6.33202 7.44255 6.27026 7.37453C6.2085 7.30652 6.16074 7.227 6.12971 7.14053C6.09868 7.05405 6.08499 6.96232 6.08941 6.87055C6.0949 6.74926 6.17925 5.65666 7.32576 4.73427C7.92023 4.2561 8.67641 4.00753 9.57185 3.99655C10.2058 3.98906 10.8012 4.09638 11.205 4.28704C12.4134 4.85855 13.0773 5.81139 13.0773 6.96638C13.0773 8.65495 11.9487 9.41313 10.953 10.0825Z" fill="#9796A1"/>
</svg>
