<svg width="22" height="20" viewBox="0 0 22 20" fill="none" xmlns="http://www.w3.org/2000/svg">
<path d="M15.8663 1.57634e-08C14.8402 0.000178998 13.8326 0.273457 12.9471 0.791771C12.0615 1.31009 11.3299 2.05476 10.8273 2.94932C10.3246 2.05455 9.59273 1.30974 8.70691 0.791409C7.82109 0.273081 6.81324 -7.57651e-05 5.78692 1.57634e-08C4.21506 0.0848925 2.73644 0.772507 1.65864 1.91981C0.580845 3.0671 -0.0131502 4.58575 0.000220938 6.15985C0.000220938 14.1869 10.8273 19.787 10.8273 19.787C10.8273 19.787 21.6544 14.1897 21.6544 6.15985C21.6678 4.58552 21.0736 3.06667 19.9955 1.91933C18.9174 0.771995 17.4384 0.084536 15.8663 1.57634e-08V1.57634e-08Z" fill="#D3D1D8"/>
</svg>
