<svg width="16" height="14" viewBox="0 0 16 14" fill="none" xmlns="http://www.w3.org/2000/svg">
<path d="M11.0552 1.09835e-08C10.3402 0.00012472 9.63818 0.190537 9.02116 0.551683C8.40413 0.912829 7.89435 1.4317 7.54415 2.055C7.19388 1.43155 6.68394 0.912586 6.06672 0.55143C5.4495 0.190275 4.74727 -5.27909e-05 4.03215 1.09835e-08C2.93693 0.0591506 1.90667 0.53826 1.15569 1.33766C0.404716 2.13707 -0.00916265 3.19522 0.000153943 4.292C0.000153943 9.885 7.54415 13.787 7.54415 13.787C7.54415 13.787 15.0882 9.887 15.0882 4.292C15.0975 3.19506 14.6834 2.13676 13.9323 1.33733C13.1811 0.537904 12.1506 0.0589022 11.0552 1.09835e-08V1.09835e-08Z" fill="white"/>
</svg>
