<svg width="24" height="25" viewBox="0 0 24 25" fill="none" xmlns="http://www.w3.org/2000/svg">
<path d="M11.9692 0.332031C8.8251 0.332031 5.80967 1.58108 3.58643 3.80432C1.36318 6.02757 0.114258 9.04293 0.114258 12.1871C0.114258 15.3312 1.36318 18.3466 3.58643 20.5698C5.80967 22.7931 8.8251 24.0421 11.9692 24.0421C15.1134 24.0421 18.1288 22.7931 20.3521 20.5698C22.5753 18.3466 23.8242 15.3312 23.8242 12.1871C23.8242 9.04293 22.5753 6.02757 20.3521 3.80432C18.1288 1.58108 15.1134 0.332031 11.9692 0.332031V0.332031ZM16.4033 8.68005L14.7163 14.423C14.6813 14.543 14.6166 14.6522 14.5283 14.7406C14.4401 14.829 14.331 14.8938 14.2112 14.9291L8.46313 16.621C8.33355 16.6592 8.19625 16.6616 8.06543 16.6279C7.93461 16.5941 7.81538 16.5255 7.72046 16.4294C7.62554 16.3332 7.55844 16.2131 7.52637 16.0818C7.4943 15.9506 7.49845 15.8132 7.53833 15.6841L9.29419 10.001C9.33 9.88493 9.39357 9.77934 9.47949 9.69342C9.56541 9.6075 9.67124 9.54387 9.78735 9.50806L15.4663 7.75708C15.5952 7.71739 15.7323 7.7133 15.8633 7.7453C15.9943 7.7773 16.1141 7.84415 16.2102 7.93878C16.3063 8.03342 16.375 8.15233 16.4089 8.28284C16.4429 8.41334 16.4411 8.55059 16.4033 8.68005V8.68005Z" fill="#FE724C"/>
</svg>
