<svg width="21" height="24" viewBox="0 0 21 24" fill="none" xmlns="http://www.w3.org/2000/svg">
<path d="M18.849 4.71894C17.964 3.27256 16.7213 2.07844 15.2407 1.25189C13.7601 0.425348 12.0916 -0.00587288 10.396 -0.000180723C8.70024 -0.00625996 7.0315 0.424823 5.55087 1.25141C4.07023 2.07799 2.82768 3.27229 1.94296 4.71894C1.2171 5.94642 0.750663 7.30969 0.572473 8.72455C0.394282 10.1394 0.508108 11.5758 0.906945 12.9449C2.62395 18.8499 8.38987 22.6828 9.98287 23.6448C10.1071 23.7192 10.2491 23.7585 10.3939 23.7585C10.5386 23.7585 10.6807 23.7192 10.8049 23.6448C12.3989 22.6798 18.1639 18.8449 19.8809 12.9449C20.2805 11.576 20.395 10.1398 20.2175 8.72492C20.04 7.31004 19.5743 5.94666 18.849 4.71894ZM10.396 13.5479C9.49881 13.5476 8.63849 13.1911 8.00411 12.5567C7.36974 11.9223 7.01317 11.062 7.0129 10.1649C7.01317 9.26771 7.36974 8.40739 8.00411 7.77301C8.63849 7.13863 9.49881 6.78219 10.396 6.78192C11.2933 6.78192 12.1538 7.13824 12.7884 7.77265C13.423 8.40705 13.7796 9.26754 13.7799 10.1649C13.7796 11.0622 13.423 11.9227 12.7884 12.5571C12.1538 13.1915 11.2933 13.5479 10.396 13.5479Z" fill="#D3D1D8"/>
</svg>
