<svg width="15" height="18" viewBox="0 0 15 18" fill="none" xmlns="http://www.w3.org/2000/svg">
<path fill-rule="evenodd" clip-rule="evenodd" d="M4.17598 1.81449C6.2698 0.597886 8.84345 0.61915 10.9176 1.87019C12.9714 3.14671 14.2196 5.42492 14.208 7.87563C14.1602 10.3103 12.8217 12.5988 11.1487 14.368C10.183 15.3937 9.10276 16.3007 7.92998 17.0705C7.80919 17.1403 7.67689 17.187 7.53959 17.2084C7.40745 17.2028 7.27877 17.1637 7.16514 17.0948C5.37466 15.9382 3.80387 14.4619 2.52832 12.7368C1.46098 11.2968 0.854596 9.55709 0.791505 7.7539C0.790119 5.29848 2.08215 3.03109 4.17598 1.81449ZM5.38594 8.76999C5.73815 9.6383 6.5695 10.2047 7.49183 10.2047C8.09605 10.209 8.67688 9.967 9.1049 9.53253C9.53291 9.09807 9.77254 8.50727 9.7704 7.89178C9.77363 6.95228 9.22052 6.10346 8.36933 5.74165C7.51815 5.37984 6.53679 5.57641 5.88347 6.23958C5.23015 6.90274 5.03374 7.90169 5.38594 8.76999Z" fill="#9796A1"/>
</svg>
