<svg width="21" height="19" viewBox="0 0 21 19" fill="none" xmlns="http://www.w3.org/2000/svg">
<path opacity="0.4" d="M20.0828 5.71725V13.2827C20.0873 14.5639 19.5816 15.7943 18.6772 16.7027C17.7727 17.611 16.5438 18.1227 15.2614 18.125H5.76344C4.47874 18.1272 3.24588 17.619 2.33665 16.7122C1.42743 15.8055 0.916502 14.5747 0.916504 13.2912V5.71725C0.917204 5.15363 1.01815 4.59462 1.21465 4.06629C1.90701 2.15175 3.72581 0.875736 5.76344 0.875001H15.2358C17.2983 0.873849 19.1348 2.17898 19.8102 4.12586C19.9976 4.63524 20.09 5.17461 20.0828 5.71725Z" fill="#9796A1"/>
<path d="M19.8104 4.13437L19.7167 4.21096C17.9534 5.58109 12.2461 10.168 12.2461 10.168C11.2537 10.9743 9.83118 10.9743 8.83876 10.168C8.83876 10.168 3.16554 5.5896 1.40225 4.21947L1.21484 4.0748C1.90436 2.1569 3.72381 0.877028 5.76364 0.875H15.236C17.3007 0.875101 19.1379 2.18413 19.8104 4.13437Z" fill="#9796A1"/>
</svg>
