<svg width="19" height="21" viewBox="0 0 19 21" fill="none" xmlns="http://www.w3.org/2000/svg">
<path opacity="0.4" d="M13.5164 0.916748H5.48458C2.57125 0.916748 0.875 2.62258 0.875 5.5455V15.4451C0.875 18.4159 2.57125 20.0834 5.48458 20.0834H13.5164C16.4767 20.0834 18.125 18.4159 18.125 15.4451V5.5455C18.125 2.62258 16.4767 0.916748 13.5164 0.916748" fill="#9796A1"/>
<path fill-rule="evenodd" clip-rule="evenodd" d="M5.74278 5.3728V5.38239C5.32974 5.38239 4.99528 5.7178 4.99528 6.12989C4.99528 6.54197 5.32974 6.87739 5.74278 6.87739H8.60724C9.02028 6.87739 9.3557 6.54197 9.3557 6.11934C9.3557 5.70822 9.02028 5.3728 8.60724 5.3728H5.74278ZM13.2561 11.2091H5.74278C5.32974 11.2091 4.99528 10.8737 4.99528 10.4616C4.99528 10.0495 5.32974 9.71315 5.74278 9.71315H13.2561C13.6682 9.71315 14.0036 10.0495 14.0036 10.4616C14.0036 10.8737 13.6682 11.2091 13.2561 11.2091ZM13.2563 15.5886H5.74293C5.45543 15.6269 5.17751 15.4832 5.02418 15.2436C4.87085 14.9944 4.87085 14.6782 5.02418 14.4386C5.17751 14.1894 5.45543 14.0552 5.74293 14.084H13.2563C13.6386 14.1223 13.9271 14.4482 13.9271 14.8411C13.9271 15.2235 13.6386 15.5502 13.2563 15.5886Z" fill="#9796A1"/>
</svg>
