<svg width="21" height="25" viewBox="0 0 21 25" fill="none" xmlns="http://www.w3.org/2000/svg">
<path d="M19.9382 12.4729C19.4251 11.8712 19.0109 11.1916 18.7112 10.4598C18.4858 9.89016 18.3721 9.28255 18.3762 8.66992V8.44885C18.3762 6.34409 17.5402 4.32557 16.0519 2.83728C14.5636 1.34899 12.5449 0.512939 10.4402 0.512939C8.33489 0.512939 6.31592 1.34923 4.82726 2.83789C3.3386 4.32655 2.50219 6.34564 2.50219 8.45093V8.67395C2.50634 9.28315 2.39327 9.88736 2.16918 10.4539C1.86936 11.1876 1.45448 11.8688 0.940174 12.4719C0.635387 12.9808 0.43402 13.5448 0.347523 14.1316C0.261026 14.7184 0.291145 15.3165 0.436146 15.8917C0.581147 16.4669 0.838136 17.0078 1.19249 17.4835C1.54685 17.9592 1.99161 18.3604 2.50121 18.6639C2.50693 18.6686 2.51339 18.6723 2.52025 18.6749L2.57421 18.7059C2.70604 18.775 2.8423 18.835 2.98217 18.8859C3.03617 18.9069 3.0972 18.9289 3.1632 18.9519C3.35315 19.0225 3.54722 19.0816 3.74425 19.1289C3.78225 19.1369 3.81917 19.148 3.85717 19.153H3.86522L4.09227 19.2069C4.25127 19.2429 4.42322 19.2778 4.61022 19.3138L4.90221 19.3658C5.10221 19.3998 5.32322 19.4339 5.55822 19.4659C5.79322 19.4979 6.04422 19.5289 6.31322 19.5569C7.68395 19.6933 9.06072 19.76 10.4382 19.7568C11.2382 19.7568 11.9602 19.7449 12.6152 19.7169C13.7602 19.6669 14.6923 19.5769 15.4473 19.4689C15.7703 19.4229 16.0623 19.3689 16.3223 19.3219C17.0417 19.2321 17.738 19.0085 18.3752 18.6628C18.8848 18.3595 19.3296 17.9587 19.6841 17.4833C20.0385 17.0078 20.2957 16.4671 20.4409 15.8921C20.5861 15.3171 20.6164 14.7192 20.5301 14.1324C20.4439 13.5457 20.2427 12.9818 19.9382 12.4729Z" fill="#D3D1D8"/>
<path d="M13.541 21.4398C12.552 21.068 11.4956 20.9092 10.441 20.9737C9.38641 20.9092 8.33008 21.0681 7.34105 21.4398C7.18463 21.5321 7.06027 21.6702 6.98497 21.8355C6.90967 22.0008 6.88704 22.1852 6.92003 22.3638C7.08574 22.872 7.38783 23.3248 7.79344 23.673C8.19905 24.0211 8.69252 24.2511 9.21995 24.3378C10.0215 24.555 10.8664 24.555 11.668 24.3378C12.1955 24.2513 12.6891 24.0214 13.0947 23.6732C13.5004 23.3251 13.8025 22.8721 13.968 22.3638C14.0006 22.1846 13.977 21.9997 13.9006 21.8343C13.8242 21.6689 13.6986 21.5312 13.541 21.4398Z" fill="#D3D1D8"/>
</svg>
