<svg width="26" height="26" viewBox="0 0 26 26" fill="none" xmlns="http://www.w3.org/2000/svg">
<circle cx="13" cy="13" r="13" fill="white"/>
<path d="M17.9711 7.28859L17.9711 7.28859L17.9692 7.28641C17.5677 6.83279 16.9043 6.75812 16.4358 7.09539L16.4353 7.09572C15.9373 7.45316 15.7683 8.11666 16.0469 8.66837L16.0482 8.6711C16.1101 8.79596 16.2102 8.92301 16.3297 9.04248L16.3315 9.04426C17.768 10.4982 18.3448 12.2735 17.8344 14.3294L17.8343 14.3295C17.3469 16.2894 16.0919 17.5916 14.2447 18.1773L14.2441 18.1775C12.4435 18.7457 10.7475 18.3827 9.29409 17.1611C8.04128 16.1106 7.39967 14.6968 7.37762 13.0317C7.35863 11.7029 7.80445 10.528 8.62356 9.5252C8.69482 9.43739 8.77449 9.36624 8.83187 9.31544C8.83689 9.31099 8.84175 9.30669 8.84646 9.30253C8.9028 9.25268 8.93786 9.22167 8.96819 9.1882L8.96817 9.18818L8.97117 9.18495C9.30094 8.82898 9.38927 8.42543 9.24532 7.95198C9.09967 7.48526 8.79153 7.22026 8.32775 7.12616C7.98915 7.05821 7.68292 7.14281 7.38112 7.38516L7.37991 7.38612C6.7777 7.8659 6.3551 8.51596 5.96112 9.25146C5.29911 10.4885 5.00066 11.824 5.04817 13.2448L5.04819 13.2453C5.10407 14.9779 5.65253 16.5167 6.6871 17.8675C7.66932 19.1469 8.89571 20.0439 10.3795 20.4968L10.3799 20.4969C12.9122 21.2721 15.2524 20.8673 17.3723 19.2076L17.3725 19.2075C18.7445 18.1347 19.6464 16.7092 20.0943 14.9676L20.0947 14.9658C20.263 14.3235 20.3362 13.6622 20.3392 12.9821C20.3077 10.8173 19.5665 8.97535 18.1078 7.44387L18.3975 7.168L18.1086 7.4447C18.0773 7.41197 18.026 7.35224 17.995 7.31625C17.9836 7.30291 17.9749 7.29283 17.9711 7.28859Z" fill="#FE724C" stroke="white" stroke-width="0.8"/>
<path d="M11.1116 10.6562C11.1145 11.4965 11.7263 12.1933 12.5225 12.2727C13.348 12.3583 14.0856 11.8021 14.2495 10.9648C14.273 10.8457 14.2759 10.7234 14.2759 10.6012M11.1116 10.6562C11.1057 8.3949 11.1057 7.60026 11.1116 5.33897C11.1116 4.73698 11.3838 4.26944 11.8726 3.96386C12.382 3.643 12.9264 3.63078 13.4475 3.93024C13.9802 4.23583 14.2671 4.7217 14.27 5.36342M11.1116 10.6562L11.5116 10.6552C11.5116 10.6551 11.5116 10.6551 11.5116 10.6551C11.514 11.304 11.9834 11.8169 12.5622 11.8747L12.5637 11.8748C13.1759 11.9383 13.7314 11.5296 13.857 10.888L13.857 10.8877C13.8723 10.8099 13.8759 10.7215 13.8759 10.6022M11.1116 10.6562L11.5116 10.6548L13.8759 10.6022M14.27 5.36342C14.2719 6.08119 14.2714 6.50082 14.2708 7.00291C14.2704 7.28744 14.27 7.59846 14.27 8.00522V8.00527C14.27 9.11449 14.27 9.49195 14.2759 10.6012M14.27 5.36342L13.87 5.36524C13.87 5.36512 13.87 5.36499 13.87 5.36487M14.27 5.36342L13.87 5.36446C13.87 5.3646 13.87 5.36473 13.87 5.36487M14.2759 10.6012L13.8759 10.6033C13.8759 10.6029 13.8759 10.6026 13.8759 10.6022M14.2759 10.6012H13.8759C13.8759 10.6015 13.8759 10.6019 13.8759 10.6022M13.8759 10.6022C13.87 9.49278 13.87 9.11442 13.87 8.00522C13.87 7.59742 13.8704 7.28611 13.8708 7.00153C13.8714 6.50012 13.8719 6.08173 13.87 5.36487M13.8759 10.6022L11.5116 5.34001L11.5116 5.33897C11.5116 4.87793 11.7102 4.53715 12.0847 4.30304L12.0859 4.3023L12.0859 4.3023C12.4706 4.05995 12.8563 4.05183 13.2482 4.27704L13.2485 4.27722C13.6557 4.51081 13.8676 4.86408 13.87 5.36487" fill="#FE724C" stroke="white" stroke-width="0.8"/>
</svg>
