<svg width="19" height="21" viewBox="0 0 19 21" fill="none" xmlns="http://www.w3.org/2000/svg">
<path opacity="0.4" d="M17.6252 12.1441C16.7183 11.6191 16.4044 10.4868 16.9168 9.58856C17.085 9.29854 17.3296 9.05743 17.6252 8.89005C18.0747 8.63867 18.4029 8.22341 18.5374 7.73595C18.672 7.24848 18.6018 6.7289 18.3424 6.29191L17.704 5.17599C17.4459 4.73826 17.0195 4.41858 16.519 4.28753C16.0185 4.15647 15.4851 4.22482 15.0364 4.47747C14.5864 4.73053 14.0516 4.7991 13.5497 4.6681C13.0478 4.5371 12.6199 4.21727 12.3601 3.77896C12.1901 3.48812 12.0997 3.15957 12.0977 2.82489C12.1001 2.3196 11.8956 1.83424 11.5296 1.47614C11.1636 1.11805 10.6662 0.916743 10.1474 0.916748H8.8617C7.78312 0.916738 6.9074 1.76586 6.90259 2.81637C6.90625 3.49769 6.535 4.12875 5.92965 4.47019C5.32429 4.81163 4.57756 4.81116 3.97266 4.46896C3.51986 4.20602 2.97705 4.1328 2.46793 4.266C1.9588 4.3992 1.52672 4.72746 1.27013 5.17599L0.657906 6.24932C0.122802 7.16011 0.443198 8.32081 1.37508 8.84746C2.30903 9.37726 2.62603 10.5437 2.08351 11.4541C1.91758 11.7436 1.67231 11.9825 1.37508 12.1441C0.925661 12.3955 0.597441 12.8107 0.462884 13.2982C0.328327 13.7857 0.398498 14.3053 0.657906 14.7422L1.27013 15.8326C1.81409 16.7423 3.01164 17.051 3.94642 16.5226C4.88219 16.0064 6.07014 16.3175 6.61397 17.2211C6.78705 17.5107 6.87763 17.8401 6.87635 18.1752C6.87633 18.6842 7.08513 19.1722 7.45633 19.5305C7.82753 19.8889 8.33034 20.0879 8.85295 20.0833H10.1386C11.2206 20.0833 12.0977 19.229 12.0977 18.1752C12.0907 17.667 12.2931 17.1772 12.6596 16.8154C13.0262 16.4536 13.5263 16.25 14.0481 16.25C14.3923 16.2479 14.7306 16.3362 15.0277 16.5056C15.9628 17.0268 17.1545 16.7147 17.6952 15.8071L18.3424 14.7167C18.8649 13.8123 18.5456 12.6669 17.6252 12.1441Z" fill="#9796A1"/>
<path d="M9.49984 12.8962C10.823 12.8962 11.8957 11.8235 11.8957 10.5003C11.8957 9.17714 10.823 8.10449 9.49984 8.10449C8.17665 8.10449 7.104 9.17714 7.104 10.5003C7.104 11.8235 8.17665 12.8962 9.49984 12.8962Z" fill="#9796A1"/>
</svg>
