<svg width="21" height="19" viewBox="0 0 21 19" fill="none" xmlns="http://www.w3.org/2000/svg">
<path fill-rule="evenodd" clip-rule="evenodd" d="M20.0798 6.02616H16.0215C14.133 6.02948 12.6031 7.52118 12.5997 9.36254C12.5971 11.2081 14.1287 12.7064 16.0215 12.7089H20.0832V13.0021C20.0832 16.2213 18.1316 18.125 14.8289 18.125H6.17158C2.8681 18.125 0.916504 16.2213 0.916504 13.0021V5.99045C0.916504 2.77118 2.8681 0.875 6.17158 0.875H14.8255C18.1282 0.875 20.0798 2.77118 20.0798 5.99045V6.02616ZM5.45852 6.01878H10.8635H10.8669H10.8737C11.2784 6.01712 11.6055 5.69569 11.6038 5.30034C11.6021 4.90582 11.2716 4.58689 10.8669 4.58855H5.45852C5.05644 4.59021 4.73019 4.90832 4.72848 5.30117C4.72678 5.69569 5.05389 6.01712 5.45852 6.01878Z" fill="#9796A1"/>
<path opacity="0.4" d="M14.3693 9.78411C14.5698 10.6957 15.369 11.337 16.2814 11.3203H19.3959C19.7755 11.3203 20.0835 11.0059 20.0835 10.6173V8.19119C20.0827 7.80339 19.7755 7.48814 19.3959 7.4873H16.2081C15.1702 7.49064 14.3319 8.35215 14.3335 9.41382C14.3335 9.53808 14.3457 9.66235 14.3693 9.78411Z" fill="#9796A1"/>
<path d="M16.2498 10.3625C16.7791 10.3625 17.2082 9.93341 17.2082 9.40413C17.2082 8.87486 16.7791 8.4458 16.2498 8.4458C15.7206 8.4458 15.2915 8.87486 15.2915 9.40413C15.2915 9.93341 15.7206 10.3625 16.2498 10.3625Z" fill="#9796A1"/>
</svg>
